<?xml version="1.0" standalone="no"?>
<!DOCTYPE svg PUBLIC "-//W3C//DTD SVG 20010904//EN"
 "http://www.w3.org/TR/2001/REC-SVG-20010904/DTD/svg10.dtd">
<svg version="1.0" xmlns="http://www.w3.org/2000/svg"
 width="724.000000pt" height="724.000000pt" viewBox="0 0 724.000000 724.000000"
 preserveAspectRatio="xMidYMid meet">
<metadata>
Created by potrace 1.14, written by Peter Selinger 2001-2017
</metadata>
<g transform="translate(0.000000,724.000000) scale(0.100000,-0.100000)"
fill="#000000" stroke="none">
<path d="M2200 6878 c0 -4 -9 -8 -20 -8 -26 0 -110 -85 -110 -110 0 -10 -4
-21 -8 -24 -13 -8 -3 -123 15 -166 7 -18 9 -26 16 -62 3 -14 10 -35 15 -45 5
-10 7 -24 5 -30 -3 -7 -1 -13 4 -13 5 0 10 -12 11 -27 1 -16 7 -43 13 -62 13
-37 5 -47 -43 -57 -16 -4 -25 -11 -21 -17 3 -6 1 -7 -5 -3 -7 4 -18 4 -24 -1
-7 -4 -18 -8 -24 -9 -12 -2 -77 -29 -106 -45 -10 -5 -25 -9 -33 -9 -8 0 -15
-4 -15 -10 0 -5 -9 -10 -20 -10 -11 0 -20 -4 -20 -10 0 -6 -3 -9 -7 -8 -5 1
-21 -5 -38 -12 -16 -7 -33 -13 -37 -12 -5 1 -8 -2 -8 -6 0 -5 -20 -17 -45 -28
-25 -10 -45 -22 -45 -26 0 -4 -7 -8 -15 -8 -8 0 -15 -4 -15 -10 0 -5 -3 -9 -7
-8 -9 1 -44 -13 -58 -24 -25 -21 -87 -58 -95 -58 -6 0 -10 -5 -10 -12 0 -6 -3
-9 -6 -5 -3 3 -14 -2 -24 -11 -9 -9 -41 -33 -69 -52 -29 -19 -60 -42 -70 -50
-9 -8 -37 -31 -62 -50 -24 -19 -50 -42 -57 -52 -7 -10 -20 -18 -28 -18 -8 0
-14 -7 -14 -17 0 -9 -3 -14 -6 -10 -3 3 -31 -20 -63 -51 -31 -31 -59 -56 -63
-55 -4 2 -10 -6 -13 -17 -4 -11 -11 -20 -16 -20 -6 0 -8 -4 -4 -9 3 -5 -4 -13
-15 -16 -12 -4 -26 -17 -32 -31 -6 -13 -15 -21 -19 -18 -5 3 -9 -1 -9 -9 0 -8
-7 -17 -15 -21 -8 -3 -15 -10 -15 -16 0 -6 -12 -24 -28 -39 -37 -40 -57 -64
-57 -71 0 -4 -7 -13 -15 -22 -22 -23 -55 -70 -52 -74 1 -2 -6 -13 -15 -23 -34
-37 -44 -51 -37 -51 4 0 -2 -10 -14 -23 -12 -13 -19 -26 -16 -30 4 -4 -1 -9
-10 -13 -9 -3 -14 -10 -11 -14 3 -4 -2 -13 -10 -20 -8 -7 -15 -19 -15 -26 0
-8 -5 -14 -11 -14 -5 0 -7 -4 -4 -10 3 -5 1 -10 -4 -10 -6 0 -10 -3 -9 -7 1
-5 -13 -37 -32 -73 -19 -36 -35 -67 -36 -70 -1 -3 -5 -15 -9 -27 -4 -13 -12
-23 -17 -23 -5 0 -7 -4 -4 -9 3 -4 -3 -26 -13 -47 -26 -53 -81 -221 -81 -245
0 -10 -4 -19 -10 -19 -5 0 -10 -14 -10 -31 0 -16 -3 -28 -8 -25 -4 2 -7 -11
-6 -30 1 -19 -1 -34 -5 -34 -4 0 -7 -10 -8 -22 -1 -21 -8 -65 -13 -78 -2 -3
-2 -8 -1 -12 0 -4 -4 -19 -9 -33 -7 -17 -7 -24 0 -20 6 4 6 -4 0 -21 -15 -37
-24 -181 -23 -349 1 -167 3 -204 16 -229 6 -13 6 -16 -2 -12 -8 5 -8 0 -3 -16
5 -13 8 -35 7 -50 -1 -16 1 -28 4 -28 4 0 8 -15 9 -32 1 -18 6 -42 11 -53 5
-11 15 -35 23 -53 7 -17 16 -32 20 -32 5 0 8 -6 8 -13 0 -7 9 -19 19 -27 11
-7 18 -17 15 -21 -2 -4 9 -13 25 -20 16 -7 28 -16 25 -20 -2 -4 5 -10 16 -14
11 -3 20 -11 20 -16 0 -5 3 -8 8 -7 4 0 14 -2 22 -5 50 -22 102 -35 124 -33
15 2 29 -1 32 -6 3 -5 12 -4 20 3 8 6 14 7 14 2 0 -7 22 -5 58 4 31 7 68 16
82 19 13 3 27 8 30 12 3 4 14 8 25 9 11 1 34 5 50 8 17 3 36 6 43 7 6 1 12 4
12 7 0 4 10 8 23 9 12 1 49 10 82 20 33 10 69 18 80 17 11 0 22 3 25 7 3 4 19
10 35 13 47 10 49 10 60 16 6 4 18 5 28 4 9 -2 17 1 17 6 0 6 4 8 9 4 5 -3 12
-1 16 5 4 6 11 8 16 5 5 -4 15 -3 22 2 13 8 28 12 67 17 14 2 32 6 40 9 63 22
109 34 114 29 3 -3 6 -1 6 4 0 5 8 10 18 11 33 3 67 11 107 25 22 7 49 13 60
13 11 0 22 3 25 7 3 4 19 9 35 12 17 2 32 5 35 6 3 1 8 2 13 1 4 0 7 4 7 10 0
5 4 8 8 5 5 -3 33 2 63 10 30 8 59 16 64 18 41 11 131 29 138 28 4 -1 7 2 7 7
0 6 8 10 18 10 43 1 91 14 86 22 -3 6 6 8 19 5 14 -2 28 -2 31 2 4 3 13 7 21
9 28 6 50 11 50 13 0 1 7 3 15 5 8 2 26 7 40 10 51 12 75 17 88 18 6 0 12 5
12 10 0 5 9 7 20 4 11 -3 23 -1 26 5 3 5 12 7 19 4 8 -3 18 1 24 8 6 7 22 12
36 10 14 -1 25 3 25 9 0 5 3 8 6 5 3 -3 27 0 54 7 54 14 56 12 66 -65 3 -19 9
-39 14 -45 4 -5 14 -38 20 -73 7 -34 17 -65 21 -68 5 -3 9 -21 9 -40 0 -19 4
-34 8 -34 4 0 8 -8 9 -17 3 -41 13 -87 20 -92 4 -3 8 -10 9 -16 1 -24 16 -92
25 -110 11 -26 31 -105 30 -127 0 -10 4 -18 9 -18 4 0 7 -8 5 -17 -1 -10 2
-24 7 -30 6 -7 8 -19 5 -27 -3 -8 -2 -16 3 -18 5 -2 10 -15 12 -30 2 -15 7
-30 11 -34 4 -4 7 -19 7 -34 0 -15 3 -30 7 -34 7 -6 11 -24 15 -58 1 -10 6
-18 10 -18 4 0 8 -14 8 -31 0 -17 4 -38 9 -48 6 -10 12 -28 14 -42 2 -13 6
-31 9 -39 16 -43 27 -94 22 -102 -3 -4 -1 -8 4 -8 5 0 9 -6 9 -12 1 -19 37
-152 43 -158 5 -5 8 -24 13 -80 1 -14 -2 -25 -8 -25 -13 -1 -101 -15 -128 -21
-12 -3 -37 -7 -55 -9 -18 -3 -41 -9 -50 -13 -9 -5 -24 -8 -32 -7 -8 1 -21 -3
-27 -8 -7 -5 -13 -7 -13 -4 0 3 -29 -3 -65 -13 -36 -10 -68 -19 -70 -19 -3 -1
-6 -1 -7 -2 -9 -2 -37 -9 -63 -14 -16 -3 -34 -10 -40 -15 -5 -4 -13 -9 -17 -9
-5 -1 -9 -1 -10 -2 -2 0 -14 -3 -28 -5 -13 -3 -29 -9 -34 -14 -4 -4 -15 -6
-22 -3 -8 3 -14 0 -14 -6 0 -6 -3 -10 -7 -9 -5 1 -28 -5 -53 -12 -25 -7 -48
-13 -52 -12 -5 1 -8 -2 -8 -7 0 -5 -12 -12 -27 -17 -36 -10 -33 -9 -68 -23
-16 -7 -34 -14 -40 -15 -5 -1 -26 -11 -45 -21 -19 -10 -42 -20 -50 -22 -9 -1
-41 -16 -73 -33 -31 -16 -59 -29 -62 -28 -2 2 -14 -5 -25 -14 -11 -10 -23 -18
-26 -18 -9 0 -78 -33 -84 -40 -12 -14 -81 -49 -75 -38 4 7 0 5 -8 -4 -8 -10
-19 -18 -24 -18 -5 0 -18 -9 -28 -20 -10 -11 -20 -18 -23 -15 -2 2 -19 -7 -37
-20 -17 -14 -35 -25 -38 -25 -4 0 -17 -9 -29 -20 -13 -10 -27 -19 -31 -19 -5
0 -17 -9 -27 -21 -10 -12 -20 -20 -22 -18 -3 3 -21 -10 -59 -44 -10 -10 -22
-19 -26 -20 -10 -2 -25 -14 -64 -50 -16 -15 -29 -25 -29 -22 0 6 -24 -15 -157
-144 -51 -49 -89 -93 -85 -97 4 -5 2 -5 -4 -2 -7 4 -23 -8 -37 -26 -14 -17
-38 -46 -54 -63 -37 -40 -96 -124 -87 -124 3 0 2 -6 -3 -12 -12 -16 -27 -68
-24 -85 1 -7 -4 -13 -11 -13 -9 0 -9 -3 2 -10 13 -9 13 -11 0 -20 -13 -9 -13
-10 0 -10 12 0 12 -2 1 -9 -9 -6 -10 -10 -2 -16 9 -5 9 -11 -1 -23 -10 -12
-10 -14 0 -8 8 5 12 -1 12 -19 0 -14 10 -47 21 -73 12 -26 21 -48 20 -50 -1
-2 8 -12 21 -22 13 -11 19 -19 14 -20 -4 0 14 -18 40 -41 48 -39 119 -78 159
-87 31 -7 5419 -10 5430 -3 6 3 17 7 26 8 9 1 29 8 45 14 16 7 32 13 36 13 4
1 13 7 19 14 7 6 19 12 27 12 7 0 10 5 7 10 -3 6 -2 10 2 10 9 0 75 57 72 62
-2 2 9 22 24 45 14 23 29 52 31 65 3 13 7 33 10 44 11 53 9 123 -5 140 -9 11
-9 15 -1 10 6 -4 12 -2 12 3 0 6 -4 11 -8 11 -5 0 -9 6 -10 13 -1 12 -3 22
-17 64 -4 13 -11 20 -16 17 -5 -3 -9 1 -9 8 0 8 -13 28 -30 46 -16 18 -30 35
-30 38 0 2 -14 17 -30 32 -16 16 -30 31 -30 34 0 10 -110 115 -115 110 -3 -3
-5 2 -5 11 0 8 -9 19 -20 22 -11 3 -20 14 -20 22 0 9 -3 14 -6 11 -3 -3 -15 4
-27 16 -46 44 -139 121 -158 130 -10 5 -19 12 -19 16 0 4 -19 20 -43 35 -23
16 -46 34 -50 42 -4 7 -12 13 -17 13 -8 0 -99 57 -110 69 -7 9 -41 30 -70 44
-26 13 -81 48 -90 57 -3 3 -10 6 -16 7 -7 1 -35 16 -63 33 -29 16 -59 30 -67
30 -8 0 -12 5 -9 10 3 6 -3 10 -14 10 -11 0 -23 5 -26 10 -3 6 -15 10 -26 10
-11 0 -17 5 -14 10 3 6 -2 10 -13 10 -10 0 -22 3 -26 8 -4 4 -11 8 -14 8 -21
4 -72 30 -72 37 0 4 -5 5 -10 2 -6 -4 -18 -1 -26 6 -9 7 -25 14 -37 16 -11 2
-26 8 -34 14 -7 6 -13 8 -13 5 0 -4 -14 3 -32 15 -17 13 -28 16 -23 8 7 -11 6
-12 -7 -2 -8 7 -18 10 -21 6 -4 -3 -7 -2 -7 4 0 6 -12 13 -27 16 -16 3 -41 11
-58 17 -16 6 -30 10 -30 8 -1 -2 -14 5 -29 16 -17 11 -25 13 -20 5 6 -12 5
-12 -9 0 -9 7 -17 10 -17 7 0 -4 -10 -1 -22 6 -22 11 -42 17 -80 20 -10 1 -18
6 -18 10 0 4 -8 7 -17 6 -10 0 -51 9 -90 21 -40 12 -84 21 -98 21 -14 0 -25 3
-25 8 0 4 -17 7 -38 7 -20 0 -49 6 -63 13 -14 6 -45 13 -68 14 -22 1 -41 4
-41 8 0 4 -16 6 -35 5 -19 -1 -35 3 -35 8 0 5 -8 3 -17 -4 -9 -8 -14 -9 -10
-2 5 7 -4 11 -26 12 -40 1 -58 4 -74 14 -8 5 -13 3 -13 -5 0 -8 -3 -9 -8 -3
-4 6 -28 10 -54 10 -27 0 -48 4 -48 9 0 5 -6 3 -14 -3 -10 -8 -16 -9 -21 -1
-3 5 -33 10 -66 10 -40 0 -59 4 -59 13 0 9 -2 9 -8 0 -8 -13 -41 -11 -64 3 -7
4 -8 3 -4 -4 9 -15 1 -15 -25 -2 -12 7 -19 7 -19 1 0 -6 -6 -8 -14 -5 -18 7
-246 11 -246 4 0 -3 -47 -6 -105 -8 -104 -3 -111 -1 -106 31 0 4 -4 7 -11 7
-6 0 -9 3 -6 6 3 3 2 21 -4 41 -16 57 -20 77 -21 96 -1 9 -4 17 -8 17 -4 0 -9
15 -12 33 -2 17 -12 59 -22 92 -10 33 -17 68 -17 78 0 9 -3 17 -7 17 -4 0 -8
6 -9 13 0 6 -3 21 -5 32 -19 75 -24 105 -18 111 3 4 0 4 -6 0 -9 -5 -13 1 -14
21 -1 15 -1 31 0 36 0 4 -3 7 -7 7 -4 0 -9 10 -10 23 -4 37 -7 51 -16 65 -4 7
-5 16 -2 19 3 3 1 14 -5 25 -6 11 -12 28 -15 39 -6 30 -12 52 -23 87 -5 17 -8
32 -5 32 2 0 -2 13 -10 29 -9 16 -12 31 -9 34 3 4 0 13 -7 22 -7 8 -9 15 -5
15 4 0 3 6 -1 13 -5 6 -9 21 -9 32 0 11 -3 22 -7 25 -4 3 -8 20 -10 38 -1 18
-6 32 -11 32 -4 0 -7 6 -6 13 2 6 -3 32 -10 56 -7 24 -13 52 -14 62 -1 11 -5
19 -9 19 -3 0 -7 8 -7 18 0 9 -5 35 -11 57 -6 22 -12 50 -13 63 0 12 -5 22 -9
22 -4 0 -8 11 -8 25 0 14 -3 25 -7 25 -5 0 -9 13 -10 28 -1 16 -3 35 -5 43 -2
8 3 13 10 11 6 -1 12 2 12 6 0 5 6 9 13 9 13 1 45 7 87 19 14 3 33 7 43 7 9 1
17 4 17 7 0 3 12 7 26 8 14 1 31 5 37 9 7 4 18 8 27 9 8 2 33 8 55 14 22 6 50
12 63 13 12 0 22 4 22 7 0 4 6 7 13 8 25 1 72 13 82 21 5 4 20 6 33 5 12 0 22
2 22 6 0 4 11 8 24 8 13 0 38 7 55 15 17 9 28 11 25 5 -4 -7 0 -7 13 1 11 5
31 12 44 15 13 3 42 10 64 16 22 6 47 12 55 14 9 1 20 5 25 8 8 4 45 13 95 22
3 1 10 4 15 7 9 6 86 23 110 24 6 0 15 3 20 6 15 9 69 23 79 20 4 -1 13 3 20
8 6 5 25 11 41 12 17 2 41 9 53 15 13 7 34 11 48 9 13 -1 21 2 18 6 -4 8 34
14 59 10 4 0 7 3 7 7 0 5 6 9 13 10 6 0 23 3 37 6 14 3 39 9 55 12 17 3 35 9
40 12 6 4 15 7 20 8 49 9 71 15 101 24 18 6 38 9 44 5 5 -3 10 -2 10 4 0 8 75
27 93 23 4 -1 7 2 7 7 0 5 8 8 18 7 9 -2 24 1 32 5 30 15 56 22 78 20 12 -1
22 2 22 7 0 6 8 9 18 7 9 -1 22 1 27 5 6 3 28 12 50 18 78 22 179 103 207 165
7 15 16 27 20 27 5 0 7 3 6 8 -2 9 13 64 21 77 10 17 9 159 -2 173 -5 6 -7 12
-3 12 4 0 0 14 -9 30 -9 17 -13 30 -9 30 3 0 -1 11 -10 25 -9 14 -14 25 -11
25 3 0 0 10 -7 23 -7 12 -13 24 -13 27 -3 14 -31 66 -38 71 -5 3 -9 9 -9 12 0
19 -12 47 -19 47 -5 0 -8 3 -7 8 2 12 -20 60 -32 67 -5 3 -8 11 -5 16 4 5 2 9
-3 9 -6 0 -17 18 -26 40 -9 22 -20 40 -25 40 -5 0 -12 9 -16 19 -3 11 -28 49
-55 86 -28 36 -50 69 -50 73 0 4 -8 14 -17 23 -10 8 -31 32 -48 53 -16 22 -63
73 -102 115 -40 41 -73 79 -73 83 0 4 -3 7 -8 6 -4 -2 -24 14 -45 35 -20 21
-37 36 -37 34 0 -3 -15 9 -34 26 -48 46 -75 67 -85 67 -5 0 -12 7 -15 16 -3 8
-10 12 -16 9 -5 -3 -10 -2 -10 3 0 9 -142 112 -155 112 -3 0 -11 5 -18 10 -24
20 -87 59 -87 54 0 -3 -12 3 -27 14 -31 21 -64 36 -75 34 -5 -1 -8 2 -8 7 0 4
-28 21 -62 36 -35 15 -65 31 -68 34 -3 3 -12 7 -20 8 -25 2 -84 27 -92 38 -4
6 -8 6 -8 1 0 -5 -7 -2 -17 5 -9 8 -17 13 -17 11 -1 -3 -17 1 -51 14 -26 9
-47 15 -62 16 -7 1 -13 4 -13 8 0 4 -6 7 -12 7 -7 1 -40 8 -73 17 -78 22 -94
26 -130 33 -16 2 -34 8 -40 12 -5 4 -26 7 -47 6 -20 0 -34 3 -32 7 3 5 -12 8
-33 8 -22 0 -44 5 -51 12 -9 9 -12 9 -12 0 0 -9 -6 -10 -17 -4 -10 4 -37 8
-60 8 -22 -1 -39 2 -36 7 2 4 -6 5 -19 4 -12 -2 -37 -1 -54 3 -20 5 -37 3 -43
-3 -8 -8 -11 -8 -11 0 0 7 -60 11 -190 10 -117 0 -190 -4 -190 -10 0 -5 -6 -5
-13 2 -8 6 -17 8 -20 4 -4 -3 -33 -7 -64 -9 -32 -1 -59 -3 -60 -4 -2 -2 -11
-3 -20 -4 -62 -6 -139 -19 -147 -24 -31 -19 -74 1 -67 32 1 4 -4 14 -10 22 -6
8 -8 14 -4 14 4 0 2 7 -5 15 -6 8 -9 18 -6 23 3 5 -1 21 -9 36 -8 14 -10 24
-5 21 5 -3 3 10 -5 30 -9 19 -12 35 -9 35 4 0 2 6 -3 13 -5 6 -16 38 -23 70
-7 32 -21 66 -29 76 -9 11 -22 28 -30 40 -8 11 -26 24 -40 30 -14 5 -35 13
-46 17 -26 11 -115 12 -115 2z"/>
</g>
</svg>
