<svg width="83" height="82" viewBox="0 0 83 82" fill="none" xmlns="http://www.w3.org/2000/svg">
<circle cx="41.6685" cy="41" r="39.6895" fill="white" stroke="black" stroke-width="2"/>
<path d="M16.9836 57.6571V48.4771C16.9836 47.3044 17.3959 46.315 18.2205 45.5087C19.045 44.7025 20.0253 44.2994 21.1613 44.2994H28.9121C29.4618 44.2994 29.984 44.4277 30.4787 44.6842C30.9735 44.9407 31.3857 45.3072 31.7155 45.7836C32.8516 47.396 34.2808 48.6512 36.0032 49.549C37.7256 50.4468 39.5579 50.8958 41.5002 50.8958C43.4424 50.8958 45.2839 50.4468 47.0246 49.549C48.7653 48.6512 50.222 47.396 51.3947 45.7836C51.6879 45.3072 52.0727 44.9407 52.5491 44.6842C53.0255 44.4277 53.5386 44.2994 54.0882 44.2994H61.839C63.0117 44.2994 64.0103 44.7025 64.8348 45.5087C65.6594 46.315 66.0717 47.3044 66.0717 48.4771V57.6571H51.0649V51.5004C49.7456 52.5998 48.2706 53.4427 46.6398 54.029C45.0091 54.6154 43.2958 54.9086 41.5002 54.9086C39.7411 54.9086 38.0462 54.6154 36.4155 54.029C34.7847 53.4427 33.3097 52.6182 31.9904 51.5554V57.6571H16.9836ZM41.5002 47.0479C40.2908 47.0479 39.1456 46.7639 38.0646 46.1959C36.9835 45.6278 36.0948 44.8491 35.3985 43.8596C34.7389 42.9435 33.9601 42.2105 33.0623 41.6608C32.1645 41.1111 31.2025 40.7447 30.1764 40.5614C31.3857 39.5353 33.099 38.7383 35.3161 38.1703C37.5332 37.6022 39.5945 37.3182 41.5002 37.3182C43.4424 37.3182 45.513 37.6022 47.7118 38.1703C49.9105 38.7383 51.6513 39.5353 52.9339 40.5614C51.8711 40.7447 50.8908 41.1111 49.993 41.6608C49.0952 42.2105 48.3347 42.9435 47.7118 43.8596C47.0155 44.8491 46.1176 45.6278 45.0182 46.1959C43.9188 46.7639 42.7461 47.0479 41.5002 47.0479ZM23.9098 39.3521C22.1508 39.3521 20.6483 38.72 19.4023 37.4557C18.1563 36.1913 17.5333 34.6797 17.5333 32.9206C17.5333 31.1616 18.1563 29.6591 19.4023 28.4131C20.6483 27.1671 22.1508 26.5442 23.9098 26.5442C25.7055 26.5442 27.2263 27.1671 28.4723 28.4131C29.7183 29.6591 30.3413 31.1616 30.3413 32.9206C30.3413 34.6797 29.7183 36.1913 28.4723 37.4557C27.2263 38.72 25.7055 39.3521 23.9098 39.3521ZM59.0905 39.3521C57.3315 39.3521 55.829 38.72 54.583 37.4557C53.337 36.1913 52.714 34.6797 52.714 32.9206C52.714 31.1616 53.337 29.6591 54.583 28.4131C55.829 27.1671 57.3315 26.5442 59.0905 26.5442C60.8862 26.5442 62.407 27.1671 63.653 28.4131C64.899 29.6591 65.522 31.1616 65.522 32.9206C65.522 34.6797 64.899 36.1913 63.653 37.4557C62.407 38.72 60.8862 39.3521 59.0905 39.3521ZM41.5002 32.3709C39.7411 32.3709 38.2386 31.748 36.9926 30.502C35.7467 29.256 35.1237 27.7535 35.1237 25.9945C35.1237 24.1988 35.7467 22.6779 36.9926 21.432C38.2386 20.186 39.7411 19.563 41.5002 19.563C43.2958 19.563 44.8167 20.186 46.0627 21.432C47.3086 22.6779 47.9316 24.1988 47.9316 25.9945C47.9316 27.7535 47.3086 29.256 46.0627 30.502C44.8167 31.748 43.2958 32.3709 41.5002 32.3709Z" fill="#262626"/>
</svg>
