<svg width="83" height="82" viewBox="0 0 83 82" fill="none" xmlns="http://www.w3.org/2000/svg">
<circle cx="41.5845" cy="41" r="40.6895" fill="#A4657E"/>
<path d="M16.8997 57.6571V48.4771C16.8997 47.3044 17.3119 46.315 18.1365 45.5087C18.961 44.7025 19.9413 44.2994 21.0774 44.2994H28.8281C29.3778 44.2994 29.9 44.4277 30.3947 44.6842C30.8895 44.9407 31.3017 45.3072 31.6316 45.7836C32.7676 47.396 34.1968 48.6512 35.9192 49.549C37.6416 50.4468 39.4739 50.8958 41.4162 50.8958C43.3584 50.8958 45.1999 50.4468 46.9406 49.549C48.6814 48.6512 50.1381 47.396 51.3107 45.7836C51.6039 45.3072 51.9887 44.9407 52.4651 44.6842C52.9415 44.4277 53.4546 44.2994 54.0043 44.2994H61.755C62.9277 44.2994 63.9263 44.7025 64.7509 45.5087C65.5754 46.315 65.9877 47.3044 65.9877 48.4771V57.6571H50.9809V51.5004C49.6617 52.5998 48.1866 53.4427 46.5559 54.029C44.9251 54.6154 43.2119 54.9086 41.4162 54.9086C39.6572 54.9086 37.9622 54.6154 36.3315 54.029C34.7007 53.4427 33.2257 52.6182 31.9064 51.5554V57.6571H16.8997ZM41.4162 47.0479C40.2068 47.0479 39.0616 46.7639 37.9806 46.1959C36.8995 45.6278 36.0108 44.8491 35.3145 43.8596C34.6549 42.9435 33.8762 42.2105 32.9783 41.6608C32.0805 41.1111 31.1185 40.7447 30.0924 40.5614C31.3017 39.5353 33.015 38.7383 35.2321 38.1703C37.4492 37.6022 39.5106 37.3182 41.4162 37.3182C43.3584 37.3182 45.429 37.6022 47.6278 38.1703C49.8266 38.7383 51.5673 39.5353 52.8499 40.5614C51.7872 40.7447 50.8069 41.1111 49.909 41.6608C49.0112 42.2105 48.2508 42.9435 47.6278 43.8596C46.9315 44.8491 46.0336 45.6278 44.9342 46.1959C43.8349 46.7639 42.6622 47.0479 41.4162 47.0479ZM23.8259 39.3521C22.0668 39.3521 20.5643 38.72 19.3183 37.4557C18.0723 36.1913 17.4494 34.6797 17.4494 32.9206C17.4494 31.1616 18.0723 29.6591 19.3183 28.4131C20.5643 27.1671 22.0668 26.5442 23.8259 26.5442C25.6215 26.5442 27.1424 27.1671 28.3883 28.4131C29.6343 29.6591 30.2573 31.1616 30.2573 32.9206C30.2573 34.6797 29.6343 36.1913 28.3883 37.4557C27.1424 38.72 25.6215 39.3521 23.8259 39.3521ZM59.0065 39.3521C57.2475 39.3521 55.745 38.72 54.499 37.4557C53.253 36.1913 52.63 34.6797 52.63 32.9206C52.63 31.1616 53.253 29.6591 54.499 28.4131C55.745 27.1671 57.2475 26.5442 59.0065 26.5442C60.8022 26.5442 62.323 27.1671 63.569 28.4131C64.815 29.6591 65.438 31.1616 65.438 32.9206C65.438 34.6797 64.815 36.1913 63.569 37.4557C62.323 38.72 60.8022 39.3521 59.0065 39.3521ZM41.4162 32.3709C39.6572 32.3709 38.1546 31.748 36.9087 30.502C35.6627 29.256 35.0397 27.7535 35.0397 25.9945C35.0397 24.1988 35.6627 22.6779 36.9087 21.432C38.1546 20.186 39.6572 19.563 41.4162 19.563C43.2119 19.563 44.7327 20.186 45.9787 21.432C47.2247 22.6779 47.8476 24.1988 47.8476 25.9945C47.8476 27.7535 47.2247 29.256 45.9787 30.502C44.7327 31.748 43.2119 32.3709 41.4162 32.3709Z" fill="white"/>
</svg>
